<svg width="24" height="27" viewBox="0 0 24 27" fill="none" xmlns="http://www.w3.org/2000/svg">
<path d="M23.2259 26V23C23.2825 21.4682 22.7294 19.9765 21.6879 18.8518C20.6465 17.7271 19.2016 17.0612 17.6699 17H6.55995C5.02832 17.0612 3.58342 17.7271 2.54195 18.8518C1.50048 19.9765 0.947404 21.4682 1.00395 23V26" stroke="black" stroke-linecap="round" stroke-linejoin="round"/>
<path d="M18.1149 7C18.1149 8.18669 17.763 9.34673 17.1037 10.3334C16.4445 11.3201 15.5074 12.0892 14.411 12.5433C13.3147 12.9974 12.1083 13.1162 10.9444 12.8847C9.7805 12.6532 8.71141 12.0818 7.87229 11.2426C7.03318 10.4035 6.46173 9.33443 6.23022 8.17054C5.99871 7.00666 6.11753 5.80026 6.57165 4.7039C7.02578 3.60754 7.79481 2.67047 8.78151 2.01118C9.7682 1.35189 10.9282 1 12.1149 1C13.7062 1 15.2324 1.63214 16.3576 2.75736C17.4828 3.88258 18.1149 5.4087 18.1149 7Z" stroke="black" stroke-linecap="round" stroke-linejoin="round"/>
</svg>
