<svg width="72" height="72" viewBox="0 0 72 72" fill="none" xmlns="http://www.w3.org/2000/svg">
<path d="M31.6 11.8001C28.3044 11.8001 25.2552 12.8341 22.7472 14.5941C22.5844 12.0729 22.008 9.88612 20.9476 7.95012C24.297 6.09658 28.0721 5.14907 31.8998 5.20122C35.7274 5.25337 39.4753 6.30337 42.7729 8.24747C46.0705 10.1916 48.8038 12.9625 50.7027 16.2864C52.6015 19.6102 53.6002 23.3721 53.6001 27.2001H63.5044C65.5459 27.2001 67.5037 28.0108 68.9476 29.4538C70.3915 30.8969 71.2033 32.8543 71.2044 34.8957V59.0957C71.205 60.1076 71.0061 61.1097 70.6192 62.0447C70.2322 62.9797 69.6647 63.8293 68.9492 64.5448C68.2336 65.2604 67.3841 65.8279 66.4491 66.2148C65.5141 66.6018 64.512 66.8007 63.5 66.8001H39.3C37.2579 66.8001 35.2994 65.9889 33.8553 64.5448C32.4113 63.1008 31.6 61.1423 31.6 59.1001V49.2001C28.5393 49.204 25.5117 48.567 22.712 47.3301C22.7692 45.8341 22.8 44.2633 22.8 42.6001V42.3273C22.8 41.5925 22.8001 40.7477 22.7868 39.8325C25.3709 41.6377 28.4479 42.604 31.6 42.6001V34.9001C31.6 30.6497 35.0496 27.2001 39.3 27.2001H47C47 23.1158 45.3776 19.1987 42.4895 16.3107C39.6014 13.4226 35.6844 11.8001 31.6 11.8001ZM52.5924 33.8001C51.526 37.1788 49.6613 40.2508 47.156 42.7561C44.6507 45.2613 41.5787 47.1261 38.2001 48.1925V59.1001C38.2001 59.7073 38.6928 60.2001 39.3 60.2001H63.5C63.7918 60.2001 64.0716 60.0842 64.2779 59.8779C64.4842 59.6716 64.6001 59.3918 64.6001 59.1001V34.9001C64.6001 34.6084 64.4842 34.3286 64.2779 34.1223C64.0716 33.916 63.7918 33.8001 63.5 33.8001H52.5924ZM45.5173 33.8001H39.3C39.0083 33.8001 38.7285 33.916 38.5222 34.1223C38.3159 34.3286 38.2001 34.6084 38.2001 34.9001V41.1173C41.4069 39.5908 43.9907 37.007 45.5173 33.8001ZM12.1564 1.35012C12.5217 1.66957 12.771 2.10079 12.8657 2.57667C12.9604 3.05255 12.8951 3.54639 12.68 3.98132C12.6428 4.11004 12.6235 4.24331 12.6228 4.37732C12.6228 4.65452 12.6932 5.18252 13.3576 5.84252C13.6788 6.16372 13.9253 6.39252 14.1937 6.64332C14.4136 6.84572 14.6469 7.05692 14.9417 7.34732C15.5136 7.89292 16.1164 8.53532 16.6576 9.34052C17.7796 11.0257 18.4 13.1333 18.4 16.2001C18.4 19.9533 17.0096 23.1521 14.8404 25.1145L15.122 25.4401C16.354 26.9537 17.0713 28.9161 17.5201 30.8521C18.4 34.6801 18.4 39.2825 18.4 42.4901V42.6001C18.4 54.8629 16.7324 61.8193 14.8976 65.7969C13.9736 67.7989 12.9924 69.0749 12.1432 69.8757C11.798 70.2069 11.4173 70.4991 11.008 70.7469C10.8207 70.8597 10.625 70.9583 10.4228 71.0417C10.4228 71.0417 9.92565 71.2001 9.60005 71.2001C9.27445 71.2001 8.77725 71.0417 8.77725 71.0417C8.57286 70.9632 8.37682 70.8644 8.19205 70.7469C7.78279 70.4991 7.4021 70.2069 7.05685 69.8757C6.20765 69.0705 5.22645 67.7989 4.30245 65.7969C2.46765 61.8193 0.800049 54.8629 0.800049 42.6001V42.4901C0.800049 39.2781 0.800049 34.6801 1.68005 30.8521C2.12885 28.9161 2.84605 26.9537 4.07805 25.4401C4.16605 25.3301 4.26285 25.2201 4.35965 25.1145C2.19045 23.1521 0.800049 19.9533 0.800049 16.2001C0.800049 14.7657 1.18285 13.0541 1.71085 11.4745C2.23885 9.89052 2.97805 8.25372 3.83165 6.93372C4.84805 5.21772 6.27805 3.77892 7.38685 2.81092C7.99475 2.2763 8.62915 1.7726 9.28765 1.30172L9.48125 1.16972C9.88471 0.900774 10.3657 0.772656 10.8495 0.80528C11.3333 0.837904 11.7927 1.02944 12.1564 1.35012Z" fill="#C3C2C2"/>
</svg>
