<svg width="18" height="18" viewBox="0 0 18 18" fill="none" xmlns="http://www.w3.org/2000/svg">
<path d="M5 1H13C14.0609 1 15.0783 1.42143 15.8284 2.17157C16.5786 2.92172 17 3.93913 17 5V13C17 14.0609 16.5786 15.0783 15.8284 15.8284C15.0783 16.5786 14.0609 17 13 17H5C3.93913 17 2.92172 16.5786 2.17157 15.8284C1.42143 15.0783 1 14.0609 1 13V5C1 3.93913 1.42143 2.92172 2.17157 2.17157C2.92172 1.42143 3.93913 1 5 1V1Z" stroke="black" stroke-linecap="round" stroke-linejoin="round"/>
<path d="M12.986 8.38397C13.1094 9.21622 12.9673 10.0662 12.5798 10.813C12.1923 11.5598 11.5792 12.1654 10.8277 12.5436C10.0761 12.9219 9.22448 13.0536 8.39382 12.9199C7.56316 12.7862 6.7958 12.3941 6.20087 11.7991C5.60595 11.2042 5.21377 10.4368 5.0801 9.60619C4.94644 8.77553 5.0781 7.92387 5.45636 7.17235C5.83462 6.42083 6.44022 5.80771 7.18702 5.42021C7.93382 5.03272 8.78379 4.89056 9.61604 5.01397C10.465 5.13986 11.2509 5.53544 11.8577 6.14228C12.4646 6.74912 12.8601 7.53505 12.986 8.38397V8.38397Z" stroke="black" stroke-linecap="round" stroke-linejoin="round"/>
</svg>
