<svg width="18" height="17" viewBox="0 0 18 17" fill="none" xmlns="http://www.w3.org/2000/svg">
<path d="M12.293 6.05981C13.5395 6.05981 14.735 6.55499 15.6164 7.43641C16.4978 8.31783 16.993 9.5133 16.993 10.7598V16.2468H13.864V10.7598C13.864 10.344 13.6988 9.94513 13.4048 9.65107C13.1107 9.35701 12.7119 9.19181 12.296 9.19181C11.8802 9.19181 11.4813 9.35701 11.1873 9.65107C10.8932 9.94513 10.728 10.344 10.728 10.7598V16.2468H7.59302V10.7598C7.59302 9.5133 8.08819 8.31783 8.96962 7.43641C9.85104 6.55499 11.0465 6.05981 12.293 6.05981V6.05981Z" stroke="black" stroke-linecap="round" stroke-linejoin="round"/>
<path d="M1 6.84375H4.136V16.2507H1V6.84375Z" stroke="black" stroke-linecap="round" stroke-linejoin="round"/>
<path d="M4.136 2.61878C4.136 2.9289 4.04404 3.23206 3.87174 3.48992C3.69945 3.74777 3.45456 3.94875 3.16805 4.06742C2.88153 4.1861 2.56626 4.21715 2.2621 4.15665C1.95794 4.09615 1.67855 3.94681 1.45926 3.72752C1.23997 3.50824 1.09063 3.22885 1.03013 2.92468C0.969628 2.62052 1.00068 2.30525 1.11936 2.01873C1.23804 1.73222 1.43901 1.48733 1.69687 1.31504C1.95472 1.14274 2.25788 1.05078 2.568 1.05078C2.77391 1.05078 2.97781 1.09134 3.16805 1.17014C3.35829 1.24894 3.53114 1.36444 3.67674 1.51004C3.82235 1.65564 3.93784 1.8285 4.01664 2.01873C4.09544 2.20897 4.136 2.41287 4.136 2.61878V2.61878Z" stroke="black" stroke-linecap="round" stroke-linejoin="round"/>
</svg>
