<svg width="16" height="12" viewBox="0 0 16 12" fill="none" xmlns="http://www.w3.org/2000/svg">
<path d="M14.5 0H1.5C1.10218 0 0.720644 0.158034 0.43934 0.439339C0.158035 0.720643 0 1.10218 0 1.5L0 10.5C0 10.8978 0.158035 11.2794 0.43934 11.5607C0.720644 11.842 1.10218 12 1.5 12H14.5C14.8978 12 15.2794 11.842 15.5607 11.5607C15.842 11.2794 16 10.8978 16 10.5V1.5C16 1.10218 15.842 0.720643 15.5607 0.439339C15.2794 0.158034 14.8978 0 14.5 0ZM14.5 1.5V2.775C13.8 3.346 12.682 4.233 10.294 6.103C9.768 6.517 8.725 7.512 8 7.503C7.275 7.515 6.232 6.52 5.706 6.103C3.318 4.233 2.2 3.346 1.5 2.775V1.5H14.5ZM1.5 10.5V4.7C2.216 5.27 3.232 6.071 4.779 7.283C5.462 7.82 6.659 9.007 8 9C9.341 8.993 10.516 7.838 11.22 7.283C12.768 6.071 13.784 5.27 14.5 4.7V10.5H1.5Z" fill="#3C3A3A"/>
</svg>
