<svg width="21" height="21" viewBox="0 0 21 21" fill="none" xmlns="http://www.w3.org/2000/svg">
<g clip-path="url(#clip0_246_532)">
<path d="M17.6016 9.1283C17.6016 14.9616 10.1016 19.9616 10.1016 19.9616C10.1016 19.9616 2.60156 14.9616 2.60156 9.1283C2.60156 7.13917 3.39174 5.23152 4.79826 3.82499C6.20478 2.41847 8.11244 1.6283 10.1016 1.6283C12.0907 1.6283 13.9983 2.41847 15.4049 3.82499C16.8114 5.23152 17.6016 7.13917 17.6016 9.1283Z" stroke="#7E7777" stroke-width="2" stroke-linecap="round" stroke-linejoin="round"/>
<path d="M10.1016 11.6283C11.4823 11.6283 12.6016 10.509 12.6016 9.1283C12.6016 7.74758 11.4823 6.6283 10.1016 6.6283C8.72085 6.6283 7.60156 7.74758 7.60156 9.1283C7.60156 10.509 8.72085 11.6283 10.1016 11.6283Z" stroke="#7E7777" stroke-width="2" stroke-linecap="round" stroke-linejoin="round"/>
</g>
<defs>
<clipPath id="clip0_246_532">
<rect width="20" height="20" fill="white" transform="translate(0.101562 0.794922)"/>
</clipPath>
</defs>
</svg>
