<svg width="12" height="16" viewBox="0 0 12 16" fill="none" xmlns="http://www.w3.org/2000/svg">
<path d="M5.383 15.677C0.843 9.095 0 8.419 0 6C0 4.4087 0.632141 2.88258 1.75736 1.75736C2.88258 0.632141 4.4087 0 6 0C7.5913 0 9.11742 0.632141 10.2426 1.75736C11.3679 2.88258 12 4.4087 12 6C12 8.419 11.157 9.095 6.617 15.677C6.54798 15.7766 6.45584 15.858 6.34847 15.9143C6.2411 15.9705 6.1217 15.9999 6.0005 15.9999C5.8793 15.9999 5.7599 15.9705 5.65253 15.9143C5.54516 15.858 5.45302 15.7766 5.384 15.677H5.383ZM6 8.5C6.49445 8.5 6.9778 8.35338 7.38893 8.07867C7.80005 7.80397 8.12048 7.41352 8.3097 6.95671C8.49892 6.49989 8.54843 5.99723 8.45196 5.51227C8.3555 5.02732 8.1174 4.58186 7.76777 4.23223C7.41814 3.8826 6.97268 3.6445 6.48773 3.54804C6.00277 3.45157 5.50011 3.50108 5.04329 3.6903C4.58648 3.87952 4.19603 4.19995 3.92133 4.61107C3.64662 5.0222 3.5 5.50555 3.5 6C3.5 6.66304 3.76339 7.29893 4.23223 7.76777C4.70107 8.23661 5.33696 8.5 6 8.5Z" fill="#3C3A3A"/>
</svg>
