<svg width="52" height="82" viewBox="0 0 52 82" fill="none" xmlns="http://www.w3.org/2000/svg">
<path d="M44.4166 81.3334H7.74996C5.80504 81.3334 3.93978 80.5608 2.56451 79.1855C1.18924 77.8103 0.416626 75.945 0.416626 74.0001V8.00008C0.416626 6.05516 1.18924 4.1899 2.56451 2.81463C3.93978 1.43936 5.80504 0.666748 7.74996 0.666748H44.4166C46.3615 0.666748 48.2268 1.43936 49.6021 2.81463C50.9773 4.1899 51.75 6.05516 51.75 8.00008V74.0001C51.75 75.945 50.9773 77.8103 49.6021 79.1855C48.2268 80.5608 46.3615 81.3334 44.4166 81.3334ZM7.74996 8.00008V74.0001H44.4166V8.00008H7.74996ZM26.0833 70.3334C25.1108 70.3334 24.1782 69.9471 23.4906 69.2595C22.8029 68.5718 22.4166 67.6392 22.4166 66.6667C22.4166 65.6943 22.8029 64.7617 23.4906 64.074C24.1782 63.3864 25.1108 63.0001 26.0833 63.0001C27.0558 63.0001 27.9884 63.3864 28.676 64.074C29.3636 64.7617 29.75 65.6943 29.75 66.6667C29.75 67.6392 29.3636 68.5718 28.676 69.2595C27.9884 69.9471 27.0558 70.3334 26.0833 70.3334Z" fill="#575757"/>
</svg>
