<svg width="18" height="27" viewBox="0 0 18 27" fill="none" xmlns="http://www.w3.org/2000/svg">
<path d="M15.2395 26.7917H3.15617C2.51523 26.7917 1.90054 26.5371 1.44733 26.0839C0.994114 25.6307 0.739502 25.016 0.739502 24.375V2.62504C0.739502 1.9841 0.994114 1.36941 1.44733 0.916199C1.90054 0.462986 2.51523 0.208374 3.15617 0.208374H15.2395C15.8804 0.208374 16.4951 0.462986 16.9483 0.916199C17.4016 1.36941 17.6562 1.9841 17.6562 2.62504V24.375C17.6562 25.016 17.4016 25.6307 16.9483 26.0839C16.4951 26.5371 15.8804 26.7917 15.2395 26.7917ZM3.15617 2.62504V24.375H15.2395V2.62504H3.15617ZM9.19783 23.1667C8.87737 23.1667 8.57002 23.0394 8.34341 22.8128C8.11681 22.5862 7.9895 22.2788 7.9895 21.9584C7.9895 21.6379 8.11681 21.3306 8.34341 21.104C8.57002 20.8773 8.87737 20.75 9.19783 20.75C9.5183 20.75 9.82565 20.8773 10.0523 21.104C10.2789 21.3306 10.4062 21.6379 10.4062 21.9584C10.4062 22.2788 10.2789 22.5862 10.0523 22.8128C9.82565 23.0394 9.5183 23.1667 9.19783 23.1667Z" fill="#C3C2C2"/>
</svg>
