<svg width="88" height="80" viewBox="0 0 88 80" fill="none" xmlns="http://www.w3.org/2000/svg">
<path d="M88 39.8598C88 34.0298 80.6997 28.5041 69.5053 25.0794C72.0903 13.6724 70.9427 4.59375 65.8827 1.68608C64.6566 0.99939 63.2689 0.653739 61.864 0.685081V4.68175C62.689 4.68175 63.3527 4.84675 63.91 5.15108C66.3483 6.55175 67.408 11.8757 66.583 18.7288C66.385 20.4154 66.0623 22.1901 65.6663 24.0014C61.9177 23.0981 58.113 22.4452 54.2777 22.0471C51.9928 18.8948 49.5 15.8986 46.816 13.0784C52.6643 7.64442 58.1533 4.66708 61.886 4.66708V0.666748C56.9507 0.666748 50.4937 4.18308 43.9633 10.2807C37.4367 4.22342 30.976 0.740081 26.0443 0.740081V4.73675C29.7587 4.73675 35.266 7.69941 41.1143 13.0967C38.6027 15.7367 36.091 18.7287 33.704 22.0471C29.8607 22.4408 26.0493 23.0999 22.297 24.0198C21.9004 22.303 21.5884 20.5678 21.362 18.8204C20.5187 11.9637 21.56 6.63975 23.9837 5.22442C24.519 4.90175 25.2193 4.75508 26.0443 4.75508V0.758415C24.541 0.758415 23.1733 1.08108 21.9927 1.75941C16.951 4.66708 15.8217 13.7237 18.4213 25.0977C7.26367 28.5444 0 34.0481 0 39.8598C0 45.6898 7.30033 51.2154 18.4947 54.6364C15.9097 66.0471 17.0573 75.1258 22.1173 78.0298C23.2833 78.7118 24.6473 79.0344 26.1507 79.0344C31.086 79.0344 37.543 75.5181 44.0733 69.4204C50.6 75.4814 57.057 78.9611 61.9923 78.9611C63.408 78.991 64.8063 78.6443 66.044 77.9564C71.0857 75.0524 72.215 65.9958 69.6153 54.6218C80.7363 51.1971 88 45.6714 88 39.8598ZM64.6433 27.8954C63.9466 30.2929 63.1391 32.6568 62.2233 34.9794C60.7243 32.0635 59.0783 29.2255 57.2917 26.4764C59.84 26.8541 62.2967 27.3197 64.647 27.8954H64.6433ZM56.43 46.9988C55.087 49.3435 53.6447 51.6299 52.107 53.8518C46.7253 54.3261 41.3125 54.3322 35.9297 53.8701C32.8421 49.4597 30.142 44.7906 27.8593 39.9148C30.1385 35.0275 32.8272 30.3419 35.8967 25.9081C41.2771 25.4328 46.6886 25.4254 52.0703 25.8861C53.559 28.0201 55.0147 30.3008 56.4117 32.7061C57.7757 35.0527 59.015 37.4361 60.1443 39.8414C59.0025 42.2759 57.7634 44.6636 56.43 46.9988ZM62.2233 44.6668C63.1913 47.0684 64.02 49.4738 64.6983 51.8058C62.3517 52.3814 59.873 52.8654 57.31 53.2394C59.0892 50.4653 60.729 47.6042 62.2233 44.6668ZM44.0367 63.8068C42.3683 62.0834 40.7 60.1658 39.05 58.0648C40.6633 58.1381 42.3133 58.1931 43.9817 58.1931C45.6683 58.1931 47.3367 58.1564 48.9683 58.0648C47.355 60.1658 45.6867 62.0834 44.0367 63.8068ZM30.69 53.2394C28.2177 52.8812 25.7633 52.4089 23.3347 51.8241C23.9983 49.5104 24.8233 47.1234 25.7547 44.7401C26.4917 46.1701 27.2653 47.6074 28.1087 49.0448C28.952 50.4784 29.81 51.8791 30.69 53.2394ZM43.945 15.9127C45.6133 17.6361 47.2817 19.5537 48.9317 21.6547C47.3183 21.5814 45.6683 21.5264 44 21.5264C42.3133 21.5264 40.645 21.5631 39.0133 21.6547C40.6267 19.5537 42.295 17.6361 43.945 15.9127ZM30.6717 26.4801C28.8929 29.2482 27.253 32.1032 25.7583 35.0344C24.8168 32.6968 23.9908 30.3142 23.2833 27.8954C25.63 27.3381 28.1087 26.8541 30.6717 26.4801ZM14.4393 48.9347C8.08867 46.2288 3.982 42.6758 3.982 39.8598C3.982 37.0438 8.08867 33.4724 14.4393 30.7847C15.9793 30.1211 17.666 29.5271 19.4077 28.9734C20.4307 32.4861 21.7763 36.1454 23.441 39.8964C21.8693 43.4244 20.5401 47.0555 19.4627 50.7644C17.7593 50.237 16.0829 49.6264 14.4393 48.9347ZM24.09 74.5648C21.6517 73.1714 20.592 67.8401 21.417 60.9908C21.615 59.3041 21.9377 57.5258 22.3337 55.7144C25.8463 56.5761 29.6853 57.2398 33.7223 57.6724C36.0073 60.8246 38.5001 63.8208 41.184 66.6411C35.3357 72.0751 29.8467 75.0524 26.114 75.0524C25.4098 75.0601 24.7146 74.8939 24.09 74.5684V74.5648ZM66.638 60.8991C67.4813 67.7521 66.44 73.0798 64.0163 74.4951C63.481 74.8178 62.7807 74.9608 61.9557 74.9608C58.2413 74.9608 52.734 72.0018 46.8857 66.6008C49.5584 63.7923 52.0344 60.803 54.296 57.6541C58.1393 57.2604 61.9507 56.6013 65.703 55.6814C66.1173 57.4928 66.4363 59.2308 66.638 60.8991ZM73.5423 48.9347C72.0023 49.5984 70.3157 50.1924 68.574 50.7461C67.4776 47.0182 66.1301 43.3689 64.5407 39.8231C66.1907 36.0941 67.5143 32.4531 68.519 28.9551C70.2278 29.4842 71.9102 30.0948 73.5607 30.7847C79.9113 33.4907 84.018 37.0438 84.018 39.8598C83.9997 42.6758 79.893 46.2471 73.5423 48.9347Z" fill="#C3C2C2"/>
</svg>
