<svg width="27" height="28" viewBox="0 0 27 28" fill="none" xmlns="http://www.w3.org/2000/svg">
<path d="M17.0004 14.1289C17.0004 14.845 16.788 15.545 16.3902 16.1404C15.9923 16.7358 15.4269 17.1999 14.7653 17.4739C14.1037 17.7479 13.3757 17.8196 12.6734 17.6799C11.9711 17.5402 11.326 17.1954 10.8196 16.689C10.3133 16.1827 9.96843 15.5376 9.82873 14.8352C9.68902 14.1329 9.76072 13.4049 10.0348 12.7434C10.3088 12.0818 10.7729 11.5163 11.3683 11.1185C11.9637 10.7206 12.6637 10.5083 13.3798 10.5083C14.34 10.5083 15.2609 10.8898 15.9399 11.5687C16.6189 12.2477 17.0004 13.1687 17.0004 14.1289V14.1289Z" stroke="black" stroke-width="1.99923" stroke-linecap="round" stroke-linejoin="round"/>
<path d="M13.3797 1.7478L13.3797 4.74664" stroke="black" stroke-width="1.99923" stroke-linecap="round" stroke-linejoin="round"/>
<path d="M13.3797 23.5103L13.3797 26.5091" stroke="black" stroke-width="1.99923" stroke-linecap="round" stroke-linejoin="round"/>
<path d="M4.54016 6.57593L6.67016 8.70593" stroke="black" stroke-width="1.99923" stroke-linecap="round" stroke-linejoin="round"/>
<path d="M18.8027 20.8394L20.9327 22.9694" stroke="black" stroke-width="1.99923" stroke-linecap="round" stroke-linejoin="round"/>
<path d="M0.998535 14.1289L3.99737 14.1289" stroke="black" stroke-width="1.99923" stroke-linecap="round" stroke-linejoin="round"/>
<path d="M22.7611 14.1289L25.7599 14.1289" stroke="black" stroke-width="1.99923" stroke-linecap="round" stroke-linejoin="round"/>
<path d="M4.54016 22.9694L6.67016 20.8394" stroke="black" stroke-width="1.99923" stroke-linecap="round" stroke-linejoin="round"/>
<path d="M18.8027 8.70593L20.9327 6.57593" stroke="black" stroke-width="1.99923" stroke-linecap="round" stroke-linejoin="round"/>
</svg>
