<svg width="74" height="68" viewBox="0 0 74 68" fill="none" xmlns="http://www.w3.org/2000/svg">
<path d="M20.0417 51.5303L24.625 45.803L9.87033 34L24.625 22.197L20.0417 16.4697L1.70832 31.1363C1.27876 31.4799 0.931974 31.9156 0.693659 32.4113C0.455344 32.907 0.331604 33.45 0.331604 34C0.331604 34.55 0.455344 35.093 0.693659 35.5887C0.931974 36.0844 1.27876 36.5202 1.70832 36.8637L20.0417 51.5303ZM53.9583 16.4697L49.375 22.197L64.1297 34L49.375 45.803L53.9583 51.5303L72.2917 36.8637C72.7213 36.5202 73.068 36.0844 73.3063 35.5887C73.5447 35.093 73.6684 34.55 73.6684 34C73.6684 33.45 73.5447 32.907 73.3063 32.4113C73.068 31.9156 72.7213 31.4799 72.2917 31.1363L53.9583 16.4697ZM47.912 1.79202L33.2453 67.792L26.0843 66.2007L40.751 0.200684L47.912 1.79202Z" fill="#C3C2C2"/>
</svg>
