<svg width="18" height="15" viewBox="0 0 18 15" fill="none" xmlns="http://www.w3.org/2000/svg">
<path d="M17 1.00811C16.3031 1.49774 15.5319 1.87187 14.716 2.11611C14.2777 1.61215 13.6952 1.25507 13.0472 1.09321C12.3992 0.931359 11.7172 0.972552 11.0934 1.21121C10.4696 1.44988 9.93426 1.87448 9.55982 2.42752C9.18538 2.98056 8.98995 3.63531 9 4.30311V5.03011C7.72195 5.0631 6.45559 4.77952 5.31366 4.20463C4.17174 3.62975 3.1897 2.78139 2.455 1.73511C2.455 1.73511 -0.455 8.28111 6.091 11.1901C4.59312 12.2067 2.80882 12.7163 1 12.6441C7.545 16.2801 15.545 12.6441 15.545 4.28011C15.5442 4.07875 15.5247 3.8779 15.487 3.68011C16.2298 2.94732 16.7537 2.02205 17 1.00811V1.00811Z" stroke="black" stroke-linecap="round" stroke-linejoin="round"/>
</svg>
