<svg width="18" height="13" viewBox="0 0 18 13" fill="none" xmlns="http://www.w3.org/2000/svg">
<path d="M16.665 3.00952C16.5785 2.66446 16.4025 2.34833 16.1548 2.09304C15.907 1.83775 15.5963 1.65234 15.254 1.55552C13.1776 1.32892 11.0896 1.22673 9.00101 1.24952C6.91126 1.22451 4.82212 1.33641 2.74701 1.58452C2.40452 1.68119 2.0936 1.86653 1.84568 2.12183C1.59775 2.37713 1.4216 2.69334 1.33501 3.03852C1.10627 4.30794 0.994467 5.59567 1.00101 6.88552C0.993016 8.18508 1.10516 9.4826 1.33601 10.7615C1.43073 11.0966 1.6104 11.4016 1.8576 11.6469C2.10481 11.8921 2.41117 12.0694 2.74701 12.1615C4.82212 12.4096 6.91126 12.5215 9.00101 12.4965C11.0908 12.5215 13.1799 12.4096 15.255 12.1615C15.5973 12.0647 15.908 11.8793 16.1558 11.624C16.4035 11.3687 16.5795 11.0526 16.666 10.7075C16.8933 9.44766 17.0055 8.16972 17.001 6.88952C17.009 5.58996 16.8969 4.29244 16.666 3.01352L16.665 3.00952Z" stroke="black" stroke-linecap="round" stroke-linejoin="round"/>
<path d="M7.18506 9.45163L11.6991 6.88463L7.18506 4.31763V9.45163Z" stroke="black" stroke-linecap="round" stroke-linejoin="round"/>
</svg>
