<svg width="24" height="27" viewBox="0 0 24 27" fill="none" xmlns="http://www.w3.org/2000/svg">
<path d="M23.2259 26V23C23.2825 21.4682 22.7294 19.9765 21.6879 18.8518C20.6465 17.7271 19.2016 17.0612 17.6699 17H6.55995C5.02832 17.0612 3.58342 17.7271 2.54195 18.8518C1.50048 19.9765 0.947404 21.4682 1.00395 23V26" stroke="white" stroke-linecap="round" stroke-linejoin="round"/>
<path d="M18.115 7C18.115 8.18669 17.7631 9.34673 17.1038 10.3334C16.4445 11.3201 15.5074 12.0892 14.4111 12.5433C13.3147 12.9974 12.1083 13.1162 10.9445 12.8847C9.78056 12.6532 8.71147 12.0818 7.87235 11.2426C7.03324 10.4035 6.46179 9.33443 6.23028 8.17054C5.99877 7.00666 6.11759 5.80026 6.57172 4.7039C7.02584 3.60754 7.79488 2.67047 8.78157 2.01118C9.76827 1.35189 10.9283 1 12.115 1C13.7063 1 15.2324 1.63214 16.3576 2.75736C17.4829 3.88258 18.115 5.4087 18.115 7Z" stroke="white" stroke-linecap="round" stroke-linejoin="round"/>
</svg>
